<?xml version="1.0" standalone="no"?>
<!DOCTYPE svg PUBLIC "-//W3C//DTD SVG 20010904//EN"
 "http://www.w3.org/TR/2001/REC-SVG-20010904/DTD/svg10.dtd">
<svg version="1.0" xmlns="http://www.w3.org/2000/svg"
 width="2048.000000pt" height="2048.000000pt" viewBox="0 0 2048.000000 2048.000000"
 preserveAspectRatio="xMidYMid meet">

<g transform="translate(0.000000,2048.000000) scale(0.100000,-0.100000)"
fill="#000000" stroke="none">
<path d="M12129 13204 c-42 -7 -170 -45 -285 -83 -115 -38 -253 -79 -308 -90
-54 -11 -100 -22 -103 -24 -4 -5 119 -54 176 -72 13 -4 61 -13 105 -19 l81
-11 -210 -111 c-281 -149 -610 -303 -835 -394 -110 -44 -328 -115 -383 -125
-20 -4 -40 -11 -42 -16 -8 -12 205 -115 298 -144 45 -14 124 -31 176 -38 l94
-12 -73 -55 c-160 -118 -282 -258 -368 -419 -39 -72 -87 -191 -77 -191 2 0 37
25 77 55 66 50 214 135 234 135 5 0 -26 -35 -68 -77 -151 -155 -542 -617 -687
-813 -104 -140 -315 -455 -444 -660 -404 -646 -509 -801 -697 -1025 -325 -388
-1064 -1185 -1659 -1787 -129 -131 -233 -238 -230 -238 3 0 50 15 105 34 54
19 277 95 494 169 621 211 836 310 1087 497 104 78 251 221 303 294 l35 48 8
-58 c24 -188 40 -283 58 -352 26 -100 99 -321 108 -326 4 -3 19 50 35 117 92
400 311 804 632 1170 103 117 221 217 351 300 176 110 259 140 598 217 203 47
382 103 476 151 195 97 451 282 622 448 64 62 117 112 117 109 0 -16 -57 -144
-96 -217 -54 -100 -107 -180 -179 -271 -28 -36 -60 -77 -69 -92 l-18 -28 53
19 c73 25 208 94 294 149 492 316 845 786 940 1252 10 47 21 141 24 210 l7
125 22 -45 c27 -59 42 -125 51 -230 l7 -85 14 75 c35 177 6 524 -59 718 -16
48 -28 88 -26 90 7 8 111 -136 141 -196 36 -71 40 -65 24 38 -16 101 -35 151
-130 350 -51 105 -98 219 -110 264 -52 204 -3 364 156 515 160 151 388 235
689 254 l40 2 -64 44 c-168 115 -341 172 -526 172 -61 0 -118 -3 -128 -7 -14
-5 -33 7 -75 48 -108 103 -199 161 -323 203 -155 53 -311 66 -460 39z m376
-85 c120 -30 265 -106 364 -190 l84 -72 72 7 c138 13 357 -30 510 -98 l30 -13
-25 -6 c-14 -3 -50 -8 -81 -10 -208 -18 -460 -145 -585 -295 -193 -234 -194
-465 0 -814 l54 -98 -47 38 c-25 21 -63 50 -84 66 l-38 28 25 -50 c38 -76 94
-270 106 -369 16 -134 26 -273 21 -273 -3 0 -18 12 -33 27 l-28 27 0 -66 c0
-150 -62 -408 -146 -605 -134 -316 -389 -617 -711 -842 -54 -37 -37 -17 29 35
181 141 372 345 441 470 79 142 141 312 152 418 l6 51 -30 -75 c-105 -271
-236 -466 -471 -700 -124 -125 -320 -299 -320 -285 0 3 11 22 24 43 68 108
120 238 151 377 9 39 18 79 21 90 4 12 -21 -8 -58 -45 -92 -96 -306 -271 -436
-357 -237 -157 -437 -236 -806 -318 -115 -26 -247 -60 -295 -77 -124 -43 -283
-127 -381 -202 -197 -148 -440 -428 -619 -714 -115 -183 -244 -464 -286 -622
-10 -36 -21 -68 -25 -73 -7 -8 -63 213 -86 343 -8 47 -18 133 -21 193 -3 59
-9 107 -12 107 -3 0 -17 -16 -30 -36 -42 -61 -158 -186 -254 -272 -195 -176
-448 -318 -832 -467 -195 -76 -718 -265 -722 -262 -1 1 119 124 265 272 147
149 339 346 427 440 88 93 207 219 265 280 473 496 783 840 974 1080 86 109
318 450 431 635 374 611 588 921 934 1350 113 140 95 119 392 454 l43 49 -47
-7 c-64 -10 -147 -39 -231 -82 -38 -19 -70 -33 -72 -31 -2 2 22 41 53 88 69
102 299 335 398 404 39 27 73 51 77 54 4 3 -43 6 -105 6 -126 1 -233 24 -340
74 l-62 29 70 1 c150 2 350 53 510 130 100 49 150 80 128 81 -6 0 -75 -20
-152 -45 -142 -46 -369 -99 -400 -93 -9 2 20 16 64 32 219 78 802 364 1025
503 80 49 153 94 164 100 14 8 -10 11 -95 16 -116 5 -219 24 -219 39 0 4 13 8
30 8 16 0 105 24 197 54 147 48 253 75 358 90 57 8 210 -5 290 -25z"/>
<path d="M12429 12831 c-21 -22 -29 -39 -29 -66 0 -27 8 -44 29 -66 76 -76
202 17 151 112 -13 24 -61 49 -95 49 -16 0 -38 -12 -56 -29z"/>
<path d="M7845 13204 c-181 -26 -275 -59 -404 -144 -49 -32 -114 -83 -144
-114 l-56 -56 -83 11 c-188 24 -383 -24 -552 -134 l-79 -52 114 -12 c221 -23
409 -88 552 -189 93 -66 156 -143 200 -244 30 -69 32 -83 31 -180 0 -123 -8
-145 -147 -427 -80 -162 -107 -239 -121 -343 -7 -45 -6 -44 29 29 55 115 160
251 217 282 21 11 21 11 -1 -20 -76 -106 -154 -329 -181 -520 -16 -103 -7
-347 13 -416 l15 -50 1 45 c2 63 35 208 63 272 l23 53 7 -130 c18 -354 164
-703 428 -1026 177 -216 528 -486 773 -593 103 -46 105 -44 37 35 -81 94 -159
214 -216 331 -43 89 -47 86 -18 -12 7 -24 12 -45 10 -47 -2 -2 -19 32 -38 74
-34 74 -68 177 -83 253 l-8 35 28 -35 c98 -122 266 -272 445 -397 104 -72 237
-149 245 -141 13 15 304 466 496 770 218 345 451 689 546 805 35 42 43 60 37
74 -17 35 -317 370 -475 530 -176 178 -177 182 -13 105 106 -51 187 -101 244
-152 l41 -37 -19 50 c-26 69 -115 202 -196 295 -70 81 -264 250 -353 307 -29
19 -52 35 -50 37 1 1 34 -5 72 -13 82 -17 171 -12 288 17 75 19 240 90 281
122 17 13 13 15 -40 27 -151 33 -417 134 -699 264 -161 74 -555 271 -695 347
-94 51 -94 51 -49 45 65 -8 205 11 302 41 45 14 86 29 90 34 5 4 -16 10 -45
14 -78 10 -235 52 -387 102 -74 24 -166 50 -205 58 -77 16 -223 27 -271 20z
m-52 -364 c53 -42 43 -125 -19 -155 -74 -35 -149 33 -124 111 21 63 92 84 143
44z m1567 -514 c63 -14 171 -32 239 -41 68 -8 126 -17 128 -19 5 -4 -23 -11
-94 -21 -52 -8 -211 10 -312 36 -72 19 -273 109 -316 142 -11 9 39 -3 110 -27
72 -24 182 -56 245 -70z m-1687 -2071 c63 -126 142 -248 230 -357 82 -103 303
-321 440 -437 48 -40 87 -75 87 -78 0 -12 -154 81 -248 151 -300 222 -510 519
-586 829 -34 136 -32 163 3 62 15 -44 48 -120 74 -170z"/>
<path d="M11215 9163 c-68 -37 -205 -78 -455 -138 -261 -62 -381 -99 -490
-149 l-55 -25 135 -138 c357 -362 618 -822 743 -1304 l24 -94 31 95 c55 172
91 413 92 620 1 78 3 92 13 76 80 -128 249 -310 380 -410 145 -111 354 -225
587 -321 127 -52 527 -197 775 -280 88 -29 195 -67 238 -84 l79 -30 -359 362
c-300 304 -715 737 -927 967 -28 30 -87 93 -131 140 -142 150 -519 579 -605
688 -18 23 -36 42 -39 42 -3 -1 -19 -8 -36 -17z"/>
</g>
</svg>
